<svg xmlns="http://www.w3.org/2000/svg" xmlns:xlink="http://www.w3.org/1999/xlink" width="1500" zoomAndPan="magnify" viewBox="0 0 1125 599.999999" height="800" preserveAspectRatio="xMidYMid meet" version="1.0"><defs><g/></defs><path fill="#71f7ab" d="M 128.066406 8.960938 C 127.617188 9.230469 127.257812 9.589844 126.808594 9.863281 C 119.242188 15.804688 115.097656 25.804688 116.179688 35.257812 C 117.351562 45.707031 122.484375 53.453125 125.457031 57.59375 C 125.457031 57.59375 143.558594 83.082031 160.941406 124.78125 C 163.914062 131.898438 162.742188 133.070312 162.382812 133.339844 C 162.023438 133.609375 161.480469 133.699219 160.761719 133.429688 C 143.019531 128.296875 125.277344 122.710938 107.171875 119.378906 C 87.089844 115.328125 66.734375 112.804688 46.289062 111.8125 C 35.933594 111.273438 24.945312 111.363281 16.207031 116.855469 C 2.519531 125.414062 -0.00390625 147.300781 11.34375 158.828125 C 18.460938 166.03125 28.90625 168.644531 38.816406 170.804688 C 51.421875 173.597656 64.121094 176.210938 76.820312 178.550781 C 83.214844 179.722656 89.699219 180.621094 96.183594 181.433594 C 104.742188 182.515625 110.324219 182.964844 110.777344 185.125 C 110.957031 185.9375 110.6875 187.378906 106.632812 189.71875 C 102.488281 192.152344 98.347656 194.492188 94.292969 197.015625 C 86.730469 201.605469 79.34375 206.378906 72.136719 211.425781 C 57.636719 221.421875 43.769531 232.410156 30.617188 244.296875 C 22.785156 251.324219 15.039062 259.066406 11.433594 268.886719 C 8.554688 276.8125 9.09375 286.355469 14.226562 293.203125 C 19.542969 300.496094 24.132812 306.800781 34.3125 306.082031 C 40.617188 305.632812 46.558594 302.75 52.234375 299.867188 C 62.410156 294.554688 72.410156 288.699219 82.046875 282.394531 C 82.226562 282.304688 87.988281 278.339844 99.425781 270.597656 C 107.714844 264.921875 114.648438 260.238281 115.277344 261.050781 C 115.550781 261.410156 114.199219 262.308594 112.847656 265.101562 C 111.585938 267.804688 110.324219 270.417969 109.246094 273.117188 C 107.082031 278.523438 105.101562 284.015625 103.300781 289.601562 C 99.609375 300.675781 96.636719 312.027344 94.292969 323.464844 C 92.851562 330.488281 91.683594 337.511719 90.78125 344.539062 C 89.699219 353.003906 88.980469 361.921875 92.132812 369.847656 C 95.734375 378.851562 104.382812 385.699219 114.019531 387.140625 C 123.65625 388.488281 133.832031 384.4375 139.867188 376.78125 C 144.550781 370.746094 146.621094 363.089844 148.601562 355.707031 C 155.628906 330.21875 164.363281 305.269531 174.902344 280.953125 C 174 283.113281 178.683594 292.210938 179.496094 294.554688 C 181.296875 299.507812 183.1875 304.371094 185.167969 309.234375 C 189.132812 318.960938 193.542969 328.507812 198.316406 337.785156 C 207.234375 355.167969 217.5 375.972656 232.542969 388.941406 C 243.621094 398.398438 259.832031 400.289062 271.449219 390.5625 C 278.925781 384.257812 282.886719 373.988281 281.445312 364.351562 C 280.1875 355.886719 275.230469 348.410156 270.730469 341.117188 C 259.199219 322.5625 249.5625 302.839844 242 282.304688 C 239.476562 275.460938 234.34375 269.066406 236.59375 266.632812 C 238.9375 264.113281 247.042969 268.164062 250.105469 269.605469 C 287.929688 287.796875 337.285156 290.679688 342.058594 291.128906 C 356.199219 292.570312 371.960938 292.75 382.769531 283.566406 C 396.546875 271.855469 394.296875 246.460938 378.625 237.363281 C 371.960938 233.488281 364.035156 232.5 356.378906 231.417969 C 332.242188 227.996094 320.175781 224.84375 320.175781 224.84375 C 289.914062 219.800781 284.597656 218.539062 284.417969 216.109375 C 284.148438 213.675781 289.371094 212.503906 305.042969 203.949219 C 309.097656 201.789062 317.382812 197.195312 327.378906 190.710938 C 341.789062 181.433594 355.390625 171.164062 368.269531 159.816406 C 376.734375 152.34375 385.289062 143.695312 387.363281 132.527344 C 390.242188 116.226562 374.933594 99.292969 358.449219 100.554688 C 351.964844 101.097656 347.28125 102.71875 338.996094 107.492188 C 322.15625 117.21875 287.75 143.246094 283.609375 144.148438 C 283.609375 144.148438 283.519531 144.148438 283.429688 144.148438 C 281.808594 143.425781 290.273438 124.511719 297.117188 102.445312 C 298.558594 97.855469 303.0625 80.5625 306.664062 58.046875 C 308.015625 49.578125 309.007812 40.574219 306.035156 32.46875 C 300.089844 16.527344 277.214844 10.042969 263.882812 20.667969 C 256.949219 26.164062 253.257812 32.828125 249.382812 44.445312 C 233.441406 92.808594 231.28125 117.128906 225.335938 117.578125 C 220.832031 117.9375 219.03125 104.066406 204.53125 72.90625 C 203.722656 71.105469 193.8125 51.832031 178.503906 28.59375 C 172.199219 19.046875 164.8125 9.140625 154.007812 5.269531 C 145.539062 2.386719 135.542969 3.738281 128.066406 8.960938 Z M 128.066406 8.960938 " fill-opacity="1" fill-rule="nonzero"/><path fill="#71f7ab" d="M 394.117188 262.398438 C 394.117188 271.496094 390.515625 279.871094 384.210938 285.277344 C 372.679688 295.003906 356.289062 294.824219 341.789062 293.382812 C 341.519531 293.382812 341.070312 293.292969 340.347656 293.292969 C 304.503906 290.410156 272.078125 282.753906 249.023438 271.675781 L 248.484375 271.40625 C 240.828125 267.804688 238.757812 267.894531 238.125 268.164062 C 237.945312 269.15625 239.566406 272.308594 240.738281 274.46875 C 241.820312 276.628906 243.078125 279.0625 243.980469 281.492188 C 251.457031 301.847656 261.09375 321.480469 272.53125 339.855469 L 273.519531 341.476562 C 277.84375 348.410156 282.347656 355.617188 283.519531 363.992188 C 285.050781 374.347656 280.816406 385.425781 272.710938 392.273438 C 260.820312 402.179688 243.621094 401.550781 230.921875 390.652344 C 216.242188 377.953125 206.152344 358.410156 197.328125 341.117188 L 196.15625 338.863281 C 191.292969 329.40625 186.878906 319.769531 182.917969 310.132812 C 180.84375 304.910156 178.953125 300.136719 177.242188 295.363281 C 177.0625 294.824219 176.613281 293.742188 176.070312 292.570312 C 175.351562 290.949219 174.722656 289.417969 174.179688 288.160156 C 164.992188 310.132812 157.070312 333.011719 150.675781 356.335938 C 148.691406 363.542969 146.53125 371.738281 141.578125 378.222656 C 135.09375 386.507812 124.105469 390.921875 113.65625 389.390625 C 103.210938 387.859375 93.933594 380.472656 89.972656 370.746094 C 86.546875 362.191406 87.449219 352.644531 88.441406 344.359375 C 89.339844 337.332031 90.511719 330.128906 91.953125 323.101562 C 94.382812 311.214844 97.445312 299.777344 101.046875 288.96875 C 102.851562 283.386719 104.832031 277.800781 107.082031 272.398438 C 107.894531 270.414062 108.792969 268.433594 109.695312 266.453125 C 106.722656 268.34375 103.210938 270.777344 100.597656 272.578125 C 94.472656 276.71875 89.972656 279.78125 87.089844 281.765625 C 84.117188 283.746094 83.394531 284.285156 83.125 284.464844 C 73.488281 290.769531 63.402344 296.714844 53.136719 302.027344 C 46.921875 305.179688 40.886719 308.0625 34.3125 308.511719 C 22.875 309.324219 17.738281 302.207031 12.246094 294.734375 C 7.023438 287.707031 5.761719 277.621094 9.183594 268.34375 C 13.054688 257.71875 21.433594 249.609375 28.996094 242.855469 C 42.238281 230.96875 56.285156 219.800781 70.789062 209.804688 C 77.722656 204.941406 85.015625 200.167969 93.03125 195.304688 C 95.914062 193.5 98.976562 191.699219 101.949219 189.988281 C 103.121094 189.359375 104.292969 188.636719 105.460938 188.007812 C 107.171875 187.015625 107.984375 186.296875 108.253906 185.9375 C 106.722656 185.214844 102.308594 184.675781 98.347656 184.226562 L 95.824219 183.953125 C 87.898438 182.964844 81.863281 182.0625 76.371094 181.074219 C 64.304688 178.820312 51.515625 176.210938 38.273438 173.328125 C 27.464844 170.984375 17.109375 168.195312 9.722656 160.71875 C 3.871094 154.773438 1.078125 145.859375 2.160156 136.671875 C 3.238281 127.484375 7.921875 119.648438 15.039062 115.234375 C 24.585938 109.292969 36.203125 109.292969 46.46875 109.832031 C 67.003906 110.824219 87.628906 113.34375 107.714844 117.398438 C 123.023438 120.191406 138.246094 124.691406 152.925781 129.015625 C 155.539062 129.738281 158.058594 130.546875 160.671875 131.265625 C 160.492188 130.367188 160.128906 128.65625 158.960938 125.863281 C 141.847656 84.882812 123.925781 59.398438 123.746094 59.125 C 120.140625 54.171875 115.277344 46.246094 114.109375 35.710938 C 112.9375 25.441406 117.441406 14.726562 125.546875 8.332031 L 125.816406 8.148438 C 125.996094 8.058594 126.085938 7.96875 126.265625 7.878906 C 126.445312 7.699219 126.71875 7.519531 127.078125 7.339844 C 135.09375 1.753906 145.71875 0.226562 154.996094 3.375 C 166.707031 7.519531 174.359375 18.058594 180.664062 27.605469 C 196.15625 51.109375 205.972656 70.292969 206.875 72.277344 C 213.089844 85.695312 216.960938 95.78125 219.753906 103.167969 C 222.09375 109.203125 224.257812 114.875 225.425781 115.597656 C 227.410156 114.875 230.378906 103.617188 233.261719 92.628906 C 236.414062 80.742188 240.738281 64.53125 247.492188 43.996094 C 251.726562 31.207031 255.777344 24.722656 262.714844 19.136719 C 269.46875 13.734375 279.105469 12.023438 288.472656 14.636719 C 297.929688 17.246094 305.3125 23.730469 308.375 31.925781 C 311.617188 40.753906 310.445312 50.300781 309.097656 58.675781 C 305.3125 82.09375 300.808594 99.203125 299.460938 103.4375 C 296.398438 113.34375 292.976562 122.53125 290.273438 130.007812 C 288.832031 133.878906 287.390625 137.753906 286.488281 140.542969 C 290.8125 137.84375 298.378906 132.617188 305.222656 127.753906 C 316.570312 119.828125 329.449219 110.824219 338.007812 105.871094 C 346.472656 101.007812 351.425781 99.203125 358.359375 98.664062 C 366.828125 98.035156 375.5625 101.816406 381.957031 108.75 C 388.261719 115.777344 391.234375 124.871094 389.703125 133.25 C 387.542969 144.867188 378.894531 153.875 369.890625 161.800781 C 357.011719 173.148438 343.140625 183.59375 328.730469 192.871094 C 318.644531 199.445312 310.265625 204.039062 306.214844 206.199219 C 300.628906 209.261719 296.308594 211.425781 293.15625 212.957031 C 290.453125 214.304688 288.109375 215.476562 287.121094 216.199219 C 290.09375 217.730469 303.0625 219.980469 320.625 222.953125 L 320.804688 222.953125 C 320.894531 222.953125 333.054688 226.105469 356.738281 229.4375 L 357.640625 229.527344 C 365.207031 230.609375 373.042969 231.6875 379.796875 235.652344 C 387.8125 240.246094 393.125 249.25 394.027344 259.519531 C 394.117188 260.328125 394.117188 261.410156 394.117188 262.398438 Z M 233.804688 268.164062 C 233.804688 266.992188 234.164062 266.003906 234.972656 265.101562 C 238.035156 261.769531 244.609375 264.472656 250.554688 267.355469 L 251.09375 267.625 C 273.699219 278.523438 305.582031 285.996094 340.796875 288.789062 C 341.429688 288.878906 341.96875 288.878906 342.238281 288.878906 C 355.839844 290.230469 371.058594 290.5 381.238281 281.855469 C 387.179688 276.808594 390.242188 268.523438 389.433594 259.699219 C 388.621094 250.871094 384.121094 243.214844 377.453125 239.34375 C 371.421875 235.832031 364.035156 234.839844 356.921875 233.851562 L 356.019531 233.761719 C 332.871094 230.519531 320.984375 227.457031 319.632812 227.183594 C 305.222656 224.753906 295.765625 223.132812 290.453125 221.78125 C 286.039062 220.699219 282.347656 219.53125 282.167969 216.378906 C 281.808594 213.316406 284.507812 211.964844 291.082031 208.722656 C 294.234375 207.191406 298.46875 205.03125 303.960938 202.058594 C 308.015625 199.894531 316.210938 195.394531 326.117188 188.910156 C 340.347656 179.722656 354.039062 169.363281 366.738281 158.195312 C 375.113281 150.8125 383.21875 142.433594 385.109375 132.167969 C 386.371094 125.234375 383.847656 117.488281 378.445312 111.453125 C 373.042969 105.507812 365.65625 102.265625 358.632812 102.808594 C 352.417969 103.347656 348.09375 104.878906 340.167969 109.472656 C 331.792969 114.335938 319.003906 123.25 307.746094 131.085938 C 292.792969 141.535156 286.398438 145.859375 284.148438 146.308594 L 283.878906 146.398438 L 282.976562 146.398438 L 282.527344 146.21875 C 280.09375 145.136719 281.085938 142.074219 281.988281 139.011719 C 282.886719 136.3125 284.238281 132.527344 285.859375 128.113281 C 288.5625 120.730469 291.894531 111.632812 294.957031 101.816406 C 296.578125 96.683594 300.992188 79.121094 304.414062 57.683594 C 305.671875 49.941406 306.753906 41.023438 303.871094 33.277344 C 301.351562 26.433594 294.957031 21.03125 286.941406 18.777344 C 279.015625 16.617188 270.910156 17.96875 265.234375 22.46875 C 259.019531 27.425781 255.417969 33.367188 251.457031 45.167969 C 244.699219 65.609375 240.46875 81.730469 237.316406 93.53125 C 232.453125 111.8125 230.46875 119.46875 225.425781 119.828125 C 221.195312 120.191406 219.390625 115.597656 215.25 104.519531 C 212.457031 97.222656 208.675781 87.136719 202.460938 73.898438 C 201.648438 72.09375 191.652344 52.730469 176.613281 29.855469 C 170.757812 20.9375 163.554688 11.121094 153.195312 7.429688 C 145.359375 4.726562 136.171875 6.078125 129.328125 10.851562 L 129.238281 10.941406 C 129.058594 11.03125 128.96875 11.121094 128.789062 11.210938 C 128.609375 11.394531 128.339844 11.574219 128.066406 11.753906 C 121.222656 17.246094 117.351562 26.34375 118.339844 35.078125 C 119.421875 44.535156 123.925781 51.742188 127.167969 56.335938 C 127.347656 56.605469 145.628906 82.542969 162.921875 123.972656 C 165.535156 130.277344 165.714844 133.609375 163.644531 135.230469 C 162.652344 135.949219 161.300781 136.132812 159.949219 135.679688 C 157.160156 134.871094 154.277344 134.058594 151.484375 133.25 C 136.894531 128.925781 121.761719 124.511719 106.632812 121.722656 C 86.730469 117.667969 66.375 115.144531 46.019531 114.15625 C 36.472656 113.613281 25.664062 113.613281 17.289062 118.839844 C 11.433594 122.53125 7.382812 129.285156 6.480469 137.03125 C 5.582031 144.777344 7.921875 152.433594 12.785156 157.386719 C 19.269531 163.960938 28.996094 166.574219 39.175781 168.734375 C 52.324219 171.617188 65.113281 174.226562 77.09375 176.480469 C 82.585938 177.46875 88.441406 178.371094 96.367188 179.363281 L 98.886719 179.632812 C 107.441406 180.710938 112.125 181.253906 112.9375 184.765625 C 113.65625 187.917969 110.324219 190.257812 107.714844 191.789062 C 106.542969 192.421875 105.371094 193.140625 104.199219 193.773438 C 101.320312 195.484375 98.257812 197.195312 95.375 198.996094 C 87.449219 203.859375 80.242188 208.542969 73.308594 213.316406 C 58.988281 223.222656 45.027344 234.210938 31.96875 246.007812 C 24.855469 252.402344 16.929688 260.058594 13.417969 269.695312 C 10.535156 277.53125 11.527344 286.085938 15.9375 291.851562 C 21.070312 298.875 25.125 304.460938 34.042969 303.828125 C 39.714844 303.378906 45.121094 300.859375 51.0625 297.886719 C 61.152344 292.570312 71.148438 286.808594 80.695312 280.503906 L 80.785156 280.414062 C 81.144531 280.144531 82.585938 279.242188 84.476562 277.890625 C 87.359375 275.910156 91.863281 272.847656 97.988281 268.703125 C 102.039062 265.914062 105.914062 263.300781 108.882812 261.410156 C 112.398438 259.15625 115.277344 257.445312 116.898438 259.609375 C 118.070312 261.140625 116.898438 262.671875 116.449219 263.300781 C 116 263.929688 115.367188 264.652344 114.738281 266.003906 L 114.109375 267.265625 C 113.027344 269.515625 112.035156 271.675781 111.136719 273.839844 C 108.972656 279.152344 106.992188 284.644531 105.28125 290.140625 C 101.769531 300.765625 98.707031 312.117188 96.367188 323.734375 C 94.925781 330.667969 93.753906 337.695312 92.851562 344.628906 C 91.863281 352.375 91.050781 361.289062 94.023438 368.855469 C 97.355469 377.140625 105.28125 383.445312 114.109375 384.796875 C 123.023438 386.058594 132.300781 382.273438 137.886719 375.25 C 142.296875 369.578125 144.28125 362.191406 146.171875 354.984375 C 153.285156 329.226562 162.113281 304.011719 172.558594 279.960938 C 173.191406 279.242188 174.179688 278.882812 175.082031 279.152344 C 176.160156 279.511719 176.792969 280.59375 176.703125 281.765625 L 176.792969 281.582031 C 176.613281 282.933594 179.132812 288.519531 180.035156 290.679688 C 180.664062 292.03125 181.117188 293.113281 181.386719 293.832031 C 183.097656 298.515625 184.898438 303.289062 187.058594 308.421875 C 190.933594 317.878906 195.34375 327.425781 200.117188 336.792969 L 201.289062 339.132812 C 209.9375 356.066406 219.753906 375.160156 233.804688 387.320312 C 244.878906 396.777344 259.652344 397.40625 269.828125 388.941406 C 276.761719 383.085938 280.367188 373.628906 279.015625 364.804688 C 277.933594 357.417969 273.699219 350.574219 269.558594 344 L 268.566406 342.375 C 256.949219 323.734375 247.222656 303.828125 239.65625 283.203125 C 238.847656 280.953125 237.675781 278.792969 236.59375 276.628906 C 235.242188 273.386719 233.804688 270.507812 233.804688 268.164062 Z M 233.804688 268.164062 " fill-opacity="1" fill-rule="nonzero"/><g fill="#d9d9d9" fill-opacity="1"><g transform="translate(396.552874, 490.76538)"><g><path d="M 172.28125 -271.046875 C 195.0625 -271.046875 215.109375 -265.191406 232.421875 -253.484375 C 249.742188 -241.785156 263.320312 -225.484375 273.15625 -204.578125 C 282.988281 -183.671875 287.90625 -159.640625 287.90625 -132.484375 C 287.90625 -105.640625 282.988281 -81.765625 273.15625 -60.859375 C 263.320312 -39.953125 249.742188 -23.644531 232.421875 -11.9375 C 215.109375 -0.226562 195.0625 5.625 172.28125 5.625 C 158.226562 5.625 145.660156 3.285156 134.578125 -1.390625 C 123.503906 -6.078125 113.441406 -15.132812 104.390625 -28.5625 L 104.390625 91.75 L 25.75 91.75 L 25.75 -265.4375 L 104.390625 -265.4375 L 104.390625 -236.875 C 113.441406 -250.300781 123.503906 -259.351562 134.578125 -264.03125 C 145.660156 -268.707031 158.226562 -271.046875 172.28125 -271.046875 Z M 150.265625 -204.109375 C 133.109375 -204.109375 119.144531 -197.550781 108.375 -184.4375 C 97.601562 -171.332031 92.21875 -154.015625 92.21875 -132.484375 C 92.21875 -111.265625 97.601562 -94.097656 108.375 -80.984375 C 119.144531 -67.878906 133.109375 -61.328125 150.265625 -61.328125 C 167.742188 -61.328125 181.789062 -67.957031 192.40625 -81.21875 C 203.019531 -94.488281 208.328125 -111.578125 208.328125 -132.484375 C 208.328125 -153.703125 203.019531 -170.941406 192.40625 -184.203125 C 181.789062 -197.472656 167.742188 -204.109375 150.265625 -204.109375 Z M 150.265625 -204.109375 "/></g></g></g><g fill="#d9d9d9" fill-opacity="1"><g transform="translate(688.677141, 490.76538)"><g><path d="M 102.515625 5.625 C 86.597656 5.625 72.085938 2.660156 58.984375 -3.265625 C 45.878906 -9.203125 35.347656 -18.097656 27.390625 -29.953125 C 19.429688 -41.816406 15.453125 -56.644531 15.453125 -74.4375 C 15.453125 -90.351562 18.570312 -103.457031 24.8125 -113.75 C 31.050781 -124.050781 39.007812 -132.320312 48.6875 -138.5625 C 58.050781 -144.8125 68.347656 -149.414062 79.578125 -152.375 C 90.816406 -155.34375 101.429688 -157.765625 111.421875 -159.640625 L 180.234375 -171.8125 C 179.296875 -185.226562 175.707031 -195.523438 169.46875 -202.703125 C 163.539062 -208.941406 154.644531 -212.0625 142.78125 -212.0625 C 133.726562 -212.0625 125.378906 -209.019531 117.734375 -202.9375 C 110.085938 -196.851562 105.328125 -188.191406 103.453125 -176.953125 L 25.28125 -176.953125 C 28.707031 -199.109375 36.351562 -217.128906 48.21875 -231.015625 C 60.082031 -244.910156 74.4375 -255.054688 91.28125 -261.453125 C 108.132812 -267.847656 125.457031 -271.046875 143.25 -271.046875 C 158.851562 -271.046875 173.832031 -268.9375 188.1875 -264.71875 C 202.550781 -260.507812 215.035156 -253.882812 225.640625 -244.84375 C 236.566406 -235.476562 244.289062 -224.707031 248.8125 -212.53125 C 253.34375 -200.363281 256.070312 -187.019531 257 -172.5 C 257.9375 -157.988281 258.40625 -142.46875 258.40625 -125.9375 L 258.40625 0 L 179.765625 0 L 179.765625 -32.296875 C 175.398438 -22.003906 169.160156 -14.046875 161.046875 -8.421875 C 153.242188 -3.117188 144.269531 0.546875 134.125 2.578125 C 123.976562 4.609375 113.441406 5.625 102.515625 5.625 Z M 125.46875 -53.84375 C 134.820312 -53.84375 144.335938 -56.023438 154.015625 -60.390625 C 164.941406 -65.378906 172.195312 -72.320312 175.78125 -81.21875 C 179.375 -90.113281 181.328125 -101.738281 181.640625 -116.09375 L 133.421875 -106.734375 C 124.679688 -105.171875 117.96875 -103.453125 113.28125 -101.578125 C 108.601562 -99.710938 104.550781 -97.21875 101.125 -94.09375 C 98.9375 -91.90625 97.21875 -89.484375 95.96875 -86.828125 C 94.71875 -84.179688 94.09375 -80.988281 94.09375 -77.25 C 94.09375 -68.820312 97.210938 -62.8125 103.453125 -59.21875 C 109.703125 -55.632812 117.039062 -53.84375 125.46875 -53.84375 Z M 125.46875 -53.84375 "/></g></g></g><g fill="#d9d9d9" fill-opacity="1"><g transform="translate(958.330362, 490.76538)"><g><path d="M 138.09375 0 L 85.203125 0 C 65.847656 0 50.863281 -4.601562 40.25 -13.8125 C 29.644531 -23.019531 24.34375 -36.050781 24.34375 -52.90625 L 24.34375 -357.1875 L 102.984375 -357.1875 L 102.984375 -80.046875 C 102.984375 -72.867188 104.78125 -68.34375 108.375 -66.46875 C 111.96875 -64.601562 115.320312 -63.671875 118.4375 -63.671875 L 138.09375 -63.671875 Z M 138.09375 0 "/></g></g></g></svg>