<svg xmlns="http://www.w3.org/2000/svg" xmlns:xlink="http://www.w3.org/1999/xlink" width="800" zoomAndPan="magnify" viewBox="0 0 600 1124.99995" height="1500" preserveAspectRatio="xMidYMid meet" version="1.0"><defs><g/></defs><path fill="#64b687" d="M 122.722656 747.96875 C 122.292969 748.230469 121.945312 748.574219 121.515625 748.832031 C 114.265625 754.53125 110.296875 764.109375 111.332031 773.171875 C 112.453125 783.183594 117.371094 790.605469 120.21875 794.574219 C 120.21875 794.574219 137.566406 819 154.222656 858.960938 C 157.074219 865.777344 155.949219 866.898438 155.605469 867.160156 C 155.261719 867.417969 154.742188 867.503906 154.050781 867.246094 C 137.050781 862.324219 120.046875 856.976562 102.699219 853.78125 C 83.453125 849.898438 63.949219 847.480469 44.359375 846.53125 C 34.433594 846.015625 23.902344 846.101562 15.53125 851.363281 C 2.414062 859.5625 -0.00390625 880.535156 10.871094 891.582031 C 17.6875 898.488281 27.699219 900.992188 37.195312 903.0625 C 49.277344 905.738281 61.445312 908.238281 73.613281 910.484375 C 79.742188 911.605469 85.957031 912.46875 92.171875 913.246094 C 100.371094 914.28125 105.722656 914.714844 106.152344 916.785156 C 106.324219 917.5625 106.066406 918.941406 102.183594 921.1875 C 98.210938 923.515625 94.242188 925.761719 90.359375 928.175781 C 83.109375 932.578125 76.03125 937.152344 69.128906 941.984375 C 55.230469 951.566406 41.941406 962.09375 29.339844 973.488281 C 21.832031 980.21875 14.410156 987.640625 10.957031 997.046875 C 8.195312 1004.644531 8.714844 1013.792969 13.632812 1020.351562 C 18.726562 1027.34375 23.125 1033.382812 32.878906 1032.691406 C 38.921875 1032.261719 44.617188 1029.5 50.054688 1026.738281 C 59.804688 1021.644531 69.386719 1016.035156 78.621094 1009.996094 C 78.792969 1009.910156 84.316406 1006.109375 95.277344 998.6875 C 103.21875 993.25 109.863281 988.761719 110.46875 989.539062 C 110.726562 989.886719 109.433594 990.75 108.136719 993.425781 C 106.929688 996.011719 105.722656 998.515625 104.683594 1001.105469 C 102.613281 1006.285156 100.714844 1011.546875 98.988281 1016.898438 C 95.449219 1027.515625 92.601562 1038.390625 90.359375 1049.351562 C 88.976562 1056.082031 87.855469 1062.8125 86.992188 1069.546875 C 85.957031 1077.660156 85.265625 1086.203125 88.285156 1093.796875 C 91.738281 1102.429688 100.023438 1108.988281 109.257812 1110.367188 C 118.492188 1111.664062 128.246094 1107.777344 134.027344 1100.441406 C 138.515625 1094.660156 140.503906 1087.324219 142.402344 1080.246094 C 149.132812 1055.824219 157.503906 1031.917969 167.601562 1008.613281 C 166.738281 1010.683594 171.226562 1019.402344 172.003906 1021.644531 C 173.730469 1026.394531 175.542969 1031.054688 177.441406 1035.714844 C 181.238281 1045.035156 185.46875 1054.183594 190.042969 1063.074219 C 198.585938 1079.730469 208.425781 1099.667969 222.835938 1112.09375 C 233.453125 1121.15625 248.988281 1122.96875 260.121094 1113.648438 C 267.285156 1107.605469 271.082031 1097.765625 269.703125 1088.53125 C 268.492188 1080.421875 263.746094 1073.257812 259.429688 1066.265625 C 248.382812 1048.488281 239.148438 1029.585938 231.898438 1009.910156 C 229.484375 1003.347656 224.5625 997.222656 226.722656 994.890625 C 228.964844 992.472656 236.734375 996.359375 239.667969 997.738281 C 275.914062 1015.171875 323.210938 1017.933594 327.785156 1018.367188 C 341.335938 1019.746094 356.4375 1019.917969 366.796875 1011.117188 C 380 999.898438 377.84375 975.558594 362.824219 966.839844 C 356.4375 963.128906 348.84375 962.179688 341.507812 961.144531 C 318.378906 957.867188 306.8125 954.84375 306.8125 954.84375 C 277.8125 950.011719 272.722656 948.804688 272.550781 946.472656 C 272.289062 944.144531 277.296875 943.019531 292.3125 934.824219 C 296.199219 932.75 304.136719 928.347656 313.71875 922.136719 C 327.527344 913.246094 340.558594 903.40625 352.898438 892.53125 C 361.011719 885.371094 369.210938 877.082031 371.195312 866.382812 C 373.957031 850.761719 359.285156 834.535156 343.492188 835.742188 C 337.277344 836.261719 332.789062 837.816406 324.851562 842.390625 C 308.710938 851.710938 275.742188 876.652344 271.773438 877.515625 C 271.773438 877.515625 271.6875 877.515625 271.601562 877.515625 C 270.046875 876.824219 278.160156 858.699219 284.71875 837.554688 C 286.097656 833.152344 290.414062 816.582031 293.867188 795.007812 C 295.160156 786.894531 296.109375 778.265625 293.261719 770.496094 C 287.566406 755.21875 265.644531 749.007812 252.871094 759.191406 C 246.226562 764.453125 242.6875 770.839844 238.976562 781.976562 C 223.699219 828.320312 221.628906 851.625 215.933594 852.054688 C 211.617188 852.402344 209.890625 839.109375 195.996094 809.246094 C 195.21875 807.523438 185.726562 789.050781 171.054688 766.785156 C 165.011719 757.636719 157.9375 748.144531 147.578125 744.433594 C 139.464844 741.671875 129.886719 742.964844 122.722656 747.96875 Z M 122.722656 747.96875 " fill-opacity="1" fill-rule="nonzero"/><path fill="#609c7a" d="M 377.671875 990.835938 C 377.671875 999.550781 374.21875 1007.578125 368.175781 1012.757812 C 357.128906 1022.078125 341.421875 1021.90625 327.527344 1020.523438 C 327.265625 1020.523438 326.835938 1020.4375 326.144531 1020.4375 C 291.796875 1017.675781 260.726562 1010.339844 238.632812 999.722656 L 238.113281 999.464844 C 230.777344 996.011719 228.792969 996.097656 228.1875 996.359375 C 228.015625 997.308594 229.570312 1000.328125 230.691406 1002.398438 C 231.726562 1004.472656 232.933594 1006.800781 233.796875 1009.132812 C 240.960938 1028.636719 250.195312 1047.453125 261.15625 1065.058594 L 262.105469 1066.609375 C 266.25 1073.257812 270.566406 1080.160156 271.6875 1088.1875 C 273.152344 1098.113281 269.097656 1108.726562 261.328125 1115.289062 C 249.9375 1124.78125 233.453125 1124.175781 221.285156 1113.734375 C 207.214844 1101.566406 197.550781 1082.835938 189.09375 1066.265625 L 187.96875 1064.109375 C 183.308594 1055.046875 179.082031 1045.8125 175.28125 1036.578125 C 173.296875 1031.570312 171.484375 1026.996094 169.847656 1022.421875 C 169.671875 1021.90625 169.242188 1020.867188 168.722656 1019.746094 C 168.035156 1018.195312 167.429688 1016.726562 166.910156 1015.519531 C 158.109375 1036.578125 150.511719 1058.5 144.386719 1080.851562 C 142.488281 1087.757812 140.414062 1095.609375 135.667969 1101.824219 C 129.453125 1109.765625 118.925781 1113.992188 108.914062 1112.527344 C 98.902344 1111.058594 90.011719 1103.980469 86.214844 1094.660156 C 82.9375 1086.460938 83.800781 1077.3125 84.75 1069.371094 C 85.613281 1062.640625 86.734375 1055.738281 88.113281 1049.003906 C 90.445312 1037.613281 93.378906 1026.652344 96.832031 1016.292969 C 98.558594 1010.945312 100.457031 1005.59375 102.613281 1000.414062 C 103.390625 998.515625 104.253906 996.617188 105.117188 994.71875 C 102.269531 996.53125 98.902344 998.859375 96.398438 1000.585938 C 90.53125 1004.558594 86.214844 1007.492188 83.453125 1009.390625 C 80.605469 1011.289062 79.914062 1011.808594 79.65625 1011.980469 C 70.421875 1018.019531 60.753906 1023.71875 50.917969 1028.808594 C 44.960938 1031.828125 39.179688 1034.589844 32.878906 1035.023438 C 21.917969 1035.800781 17 1028.980469 11.734375 1021.820312 C 6.726562 1015.085938 5.519531 1005.421875 8.800781 996.53125 C 12.511719 986.347656 20.535156 978.578125 27.785156 972.105469 C 40.472656 960.714844 53.9375 950.011719 67.832031 940.433594 C 74.476562 935.773438 81.46875 931.199219 89.148438 926.535156 C 91.910156 924.8125 94.847656 923.085938 97.695312 921.445312 C 98.816406 920.839844 99.9375 920.148438 101.058594 919.546875 C 102.699219 918.597656 103.476562 917.90625 103.734375 917.5625 C 102.269531 916.871094 98.039062 916.351562 94.242188 915.921875 L 91.824219 915.664062 C 84.230469 914.714844 78.449219 913.851562 73.183594 912.902344 C 61.617188 910.742188 49.363281 908.238281 36.675781 905.476562 C 26.320312 903.234375 16.394531 900.558594 9.316406 893.394531 C 3.707031 887.699219 1.03125 879.15625 2.066406 870.351562 C 3.101562 861.546875 7.589844 854.039062 14.410156 849.8125 C 23.558594 844.113281 34.691406 844.113281 44.53125 844.632812 C 64.207031 845.582031 83.972656 848 103.21875 851.882812 C 117.890625 854.558594 132.476562 858.875 146.542969 863.015625 C 149.046875 863.707031 151.460938 864.484375 153.964844 865.171875 C 153.792969 864.3125 153.449219 862.671875 152.324219 859.996094 C 135.929688 820.726562 118.753906 796.300781 118.582031 796.042969 C 115.128906 791.296875 110.46875 783.699219 109.34375 773.601562 C 108.222656 763.765625 112.539062 753.492188 120.304688 747.367188 L 120.566406 747.195312 C 120.738281 747.109375 120.824219 747.019531 120.996094 746.933594 C 121.167969 746.761719 121.429688 746.589844 121.773438 746.417969 C 129.453125 741.066406 139.640625 739.597656 148.527344 742.621094 C 159.75 746.589844 167.085938 756.6875 173.125 765.835938 C 187.96875 788.363281 197.378906 806.746094 198.242188 808.644531 C 204.195312 821.503906 207.90625 831.167969 210.582031 838.246094 C 212.824219 844.027344 214.898438 849.464844 216.019531 850.15625 C 217.917969 849.464844 220.765625 838.679688 223.527344 828.148438 C 226.546875 816.757812 230.691406 801.222656 237.164062 781.542969 C 241.21875 769.289062 245.105469 763.074219 251.75 757.722656 C 258.222656 752.542969 267.457031 750.90625 276.433594 753.40625 C 285.496094 755.910156 292.574219 762.125 295.507812 769.976562 C 298.613281 778.4375 297.492188 787.585938 296.199219 795.609375 C 292.574219 818.050781 288.257812 834.449219 286.960938 838.503906 C 284.027344 848 280.75 856.800781 278.160156 863.964844 C 276.777344 867.675781 275.398438 871.386719 274.535156 874.0625 C 278.675781 871.472656 285.925781 866.46875 292.484375 861.808594 C 303.359375 854.210938 315.703125 845.582031 323.902344 840.835938 C 332.015625 836.175781 336.761719 834.449219 343.40625 833.929688 C 351.519531 833.328125 359.890625 836.953125 366.019531 843.597656 C 372.058594 850.328125 374.90625 859.046875 373.441406 867.074219 C 371.371094 878.207031 363.085938 886.835938 354.453125 894.429688 C 342.113281 905.304688 328.820312 915.316406 315.011719 924.207031 C 305.347656 930.507812 297.320312 934.910156 293.4375 936.980469 C 288.085938 939.914062 283.941406 941.984375 280.921875 943.453125 C 278.332031 944.746094 276.089844 945.871094 275.140625 946.558594 C 277.988281 948.027344 290.414062 950.183594 307.246094 953.03125 L 307.417969 953.03125 C 307.503906 953.03125 319.15625 956.054688 341.851562 959.246094 L 342.714844 959.332031 C 349.964844 960.367188 357.472656 961.40625 363.949219 965.203125 C 371.628906 969.605469 376.71875 978.234375 377.582031 988.074219 C 377.671875 988.851562 377.671875 989.886719 377.671875 990.835938 Z M 224.046875 996.359375 C 224.046875 995.234375 224.390625 994.285156 225.167969 993.425781 C 228.101562 990.230469 234.402344 992.820312 240.097656 995.582031 L 240.617188 995.839844 C 262.277344 1006.285156 292.832031 1013.445312 326.578125 1016.121094 C 327.179688 1016.207031 327.699219 1016.207031 327.957031 1016.207031 C 340.988281 1017.503906 355.574219 1017.761719 365.328125 1009.476562 C 371.023438 1004.644531 373.957031 996.703125 373.183594 988.246094 C 372.40625 979.789062 368.089844 972.453125 361.703125 968.742188 C 355.921875 965.375 348.84375 964.425781 342.027344 963.476562 L 341.164062 963.390625 C 318.980469 960.28125 307.589844 957.347656 306.296875 957.089844 C 292.484375 954.757812 283.425781 953.207031 278.332031 951.910156 C 274.101562 950.875 270.566406 949.753906 270.390625 946.734375 C 270.046875 943.796875 272.636719 942.503906 278.9375 939.398438 C 281.957031 937.929688 286.011719 935.859375 291.277344 933.011719 C 295.160156 930.9375 303.015625 926.625 312.507812 920.410156 C 326.144531 911.605469 339.265625 901.679688 351.433594 890.980469 C 359.460938 883.902344 367.226562 875.875 369.039062 866.035156 C 370.246094 859.390625 367.832031 851.96875 362.652344 846.1875 C 357.472656 840.488281 350.398438 837.382812 343.664062 837.902344 C 337.710938 838.417969 333.566406 839.886719 325.972656 844.289062 C 317.945312 848.949219 305.691406 857.492188 294.902344 865 C 280.574219 875.011719 274.449219 879.15625 272.289062 879.585938 L 272.03125 879.671875 L 271.167969 879.671875 L 270.738281 879.5 C 268.40625 878.464844 269.355469 875.53125 270.21875 872.597656 C 271.082031 870.007812 272.378906 866.382812 273.929688 862.152344 C 276.519531 855.074219 279.714844 846.359375 282.648438 836.953125 C 284.199219 832.03125 288.429688 815.203125 291.710938 794.660156 C 292.917969 787.238281 293.953125 778.695312 291.191406 771.273438 C 288.773438 764.714844 282.648438 759.535156 274.964844 757.378906 C 267.371094 755.304688 259.605469 756.601562 254.167969 760.917969 C 248.210938 765.664062 244.757812 771.359375 240.960938 782.664062 C 234.488281 802.257812 230.433594 817.707031 227.410156 829.011719 C 222.75 846.53125 220.851562 853.867188 216.019531 854.210938 C 211.964844 854.558594 210.238281 850.15625 206.265625 839.539062 C 203.589844 832.550781 199.964844 822.882812 194.011719 810.195312 C 193.234375 808.472656 183.65625 789.914062 169.242188 767.992188 C 163.632812 759.449219 156.726562 750.042969 146.800781 746.503906 C 139.292969 743.914062 130.492188 745.207031 123.929688 749.78125 L 123.84375 749.871094 C 123.671875 749.957031 123.585938 750.042969 123.414062 750.128906 C 123.242188 750.300781 122.980469 750.472656 122.722656 750.644531 C 116.164062 755.910156 112.453125 764.628906 113.402344 773 C 114.4375 782.0625 118.753906 788.964844 121.859375 793.367188 C 122.03125 793.625 139.550781 818.480469 156.125 858.183594 C 158.625 864.222656 158.796875 867.417969 156.8125 868.972656 C 155.863281 869.660156 154.570312 869.835938 153.273438 869.402344 C 150.601562 868.625 147.839844 867.847656 145.164062 867.074219 C 131.179688 862.929688 116.679688 858.699219 102.183594 856.023438 C 83.109375 852.140625 63.605469 849.726562 44.097656 848.777344 C 34.949219 848.257812 24.59375 848.257812 16.566406 853.261719 C 10.957031 856.800781 7.074219 863.273438 6.210938 870.695312 C 5.347656 878.121094 7.589844 885.457031 12.25 890.203125 C 18.464844 896.503906 27.785156 899.003906 37.539062 901.078125 C 50.140625 903.839844 62.394531 906.339844 73.875 908.5 C 79.136719 909.449219 84.75 910.3125 92.34375 911.261719 L 94.761719 911.519531 C 102.957031 912.554688 107.445312 913.074219 108.222656 916.4375 C 108.914062 919.460938 105.722656 921.703125 103.21875 923.171875 C 102.097656 923.773438 100.972656 924.464844 99.851562 925.070312 C 97.089844 926.710938 94.15625 928.347656 91.394531 930.074219 C 83.800781 934.734375 76.894531 939.222656 70.25 943.796875 C 56.527344 953.292969 43.148438 963.820312 30.636719 975.128906 C 23.816406 981.253906 16.222656 988.589844 12.855469 997.824219 C 10.09375 1005.335938 11.042969 1013.53125 15.273438 1019.058594 C 20.191406 1025.789062 24.074219 1031.140625 32.621094 1030.535156 C 38.058594 1030.105469 43.234375 1027.6875 48.929688 1024.839844 C 58.597656 1019.746094 68.179688 1014.222656 77.328125 1008.183594 L 77.414062 1008.097656 C 77.757812 1007.835938 79.136719 1006.972656 80.949219 1005.679688 C 83.710938 1003.78125 88.027344 1000.847656 93.898438 996.875 C 97.78125 994.199219 101.492188 991.699219 104.339844 989.886719 C 107.707031 987.726562 110.46875 986.089844 112.019531 988.160156 C 113.144531 989.625 112.019531 991.09375 111.589844 991.699219 C 111.15625 992.300781 110.554688 992.992188 109.949219 994.285156 L 109.34375 995.496094 C 108.308594 997.652344 107.359375 999.722656 106.496094 1001.796875 C 104.425781 1006.886719 102.527344 1012.152344 100.886719 1017.417969 C 97.523438 1027.601562 94.585938 1038.476562 92.34375 1049.609375 C 90.960938 1056.253906 89.839844 1062.984375 88.976562 1069.632812 C 88.027344 1077.054688 87.25 1085.597656 90.097656 1092.847656 C 93.292969 1100.789062 100.886719 1106.828125 109.34375 1108.125 C 117.890625 1109.332031 126.78125 1105.707031 132.128906 1098.976562 C 136.359375 1093.539062 138.257812 1086.460938 140.070312 1079.558594 C 146.886719 1054.875 155.347656 1030.707031 165.359375 1007.664062 C 165.960938 1006.972656 166.910156 1006.628906 167.773438 1006.886719 C 168.808594 1007.234375 169.414062 1008.269531 169.328125 1009.390625 L 169.414062 1009.21875 C 169.242188 1010.511719 171.660156 1015.863281 172.519531 1017.933594 C 173.125 1019.230469 173.558594 1020.265625 173.816406 1020.957031 C 175.457031 1025.441406 177.183594 1030.015625 179.253906 1034.9375 C 182.964844 1044 187.191406 1053.148438 191.765625 1062.125 L 192.890625 1064.367188 C 201.175781 1080.59375 210.582031 1098.890625 224.046875 1110.539062 C 234.660156 1119.601562 248.816406 1120.207031 258.566406 1112.09375 C 265.214844 1106.484375 268.664062 1097.421875 267.371094 1088.964844 C 266.335938 1081.886719 262.277344 1075.328125 258.308594 1069.027344 L 257.359375 1067.472656 C 246.226562 1049.609375 236.90625 1030.535156 229.65625 1010.769531 C 228.878906 1008.613281 227.757812 1006.542969 226.722656 1004.472656 C 225.425781 1001.363281 224.046875 998.601562 224.046875 996.359375 Z M 224.046875 996.359375 " fill-opacity="1" fill-rule="nonzero"/><g fill="#38485c" fill-opacity="1"><g transform="translate(464.554225, 725.368454)"><g><path d="M -258.15625 -164.078125 C -258.15625 -185.773438 -252.582031 -204.867188 -241.4375 -221.359375 C -230.289062 -237.859375 -214.757812 -250.789062 -194.84375 -260.15625 C -174.925781 -269.519531 -152.035156 -274.203125 -126.171875 -274.203125 C -100.609375 -274.203125 -77.867188 -269.519531 -57.953125 -260.15625 C -38.046875 -250.789062 -22.519531 -237.859375 -11.375 -221.359375 C -0.226562 -204.867188 5.34375 -185.773438 5.34375 -164.078125 C 5.34375 -150.703125 3.113281 -138.738281 -1.34375 -128.1875 C -5.800781 -117.632812 -14.421875 -108.046875 -27.203125 -99.421875 L 87.390625 -99.421875 L 87.390625 -24.515625 L -252.796875 -24.515625 L -252.796875 -99.421875 L -225.609375 -99.421875 C -238.390625 -108.046875 -247.007812 -117.632812 -251.46875 -128.1875 C -255.925781 -138.738281 -258.15625 -150.703125 -258.15625 -164.078125 Z M -194.390625 -143.125 C -194.390625 -126.769531 -188.144531 -113.460938 -175.65625 -103.203125 C -163.175781 -92.953125 -146.679688 -87.828125 -126.171875 -87.828125 C -105.960938 -87.828125 -89.613281 -92.953125 -77.125 -103.203125 C -64.644531 -113.460938 -58.40625 -126.769531 -58.40625 -143.125 C -58.40625 -159.769531 -64.722656 -173.144531 -77.359375 -183.25 C -89.992188 -193.351562 -106.265625 -198.40625 -126.171875 -198.40625 C -146.390625 -198.40625 -162.8125 -193.351562 -175.4375 -183.25 C -188.070312 -173.144531 -194.390625 -159.769531 -194.390625 -143.125 Z M -194.390625 -143.125 "/></g></g></g><g fill="#38485c" fill-opacity="1"><g transform="translate(464.554225, 447.151402)"><g><path d="M 5.34375 -97.640625 C 5.34375 -82.484375 2.519531 -68.660156 -3.125 -56.171875 C -8.769531 -43.691406 -17.238281 -33.660156 -28.53125 -26.078125 C -39.832031 -18.503906 -53.953125 -14.71875 -70.890625 -14.71875 C -86.046875 -14.71875 -98.53125 -17.6875 -108.34375 -23.625 C -118.15625 -29.570312 -126.03125 -37.15625 -131.96875 -46.375 C -137.914062 -55.289062 -142.300781 -65.097656 -145.125 -75.796875 C -147.945312 -86.492188 -150.25 -96.597656 -152.03125 -106.109375 L -163.625 -171.65625 C -176.40625 -170.757812 -186.21875 -167.34375 -193.0625 -161.40625 C -199 -155.757812 -201.96875 -147.285156 -201.96875 -135.984375 C -201.96875 -127.367188 -199.066406 -119.414062 -193.265625 -112.125 C -187.472656 -104.84375 -179.226562 -100.3125 -168.53125 -98.53125 L -168.53125 -24.078125 C -189.632812 -27.347656 -206.800781 -34.628906 -220.03125 -45.921875 C -233.257812 -57.210938 -242.921875 -70.882812 -249.015625 -86.9375 C -255.109375 -102.988281 -258.15625 -119.488281 -258.15625 -136.4375 C -258.15625 -151.289062 -256.144531 -165.554688 -252.125 -179.234375 C -248.113281 -192.910156 -241.800781 -204.800781 -233.1875 -214.90625 C -224.269531 -225.3125 -214.015625 -232.664062 -202.421875 -236.96875 C -190.828125 -241.28125 -178.117188 -243.878906 -164.296875 -244.765625 C -150.472656 -245.660156 -135.6875 -246.109375 -119.9375 -246.109375 L 0 -246.109375 L 0 -171.203125 L -30.765625 -171.203125 C -20.953125 -167.046875 -13.375 -161.101562 -8.03125 -153.375 C -2.976562 -145.945312 0.507812 -137.398438 2.4375 -127.734375 C 4.375 -118.078125 5.34375 -108.046875 5.34375 -97.640625 Z M -51.28125 -119.484375 C -51.28125 -128.398438 -53.359375 -137.46875 -57.515625 -146.6875 C -62.273438 -157.09375 -68.890625 -164.003906 -77.359375 -167.421875 C -85.828125 -170.835938 -96.898438 -172.695312 -110.578125 -173 L -101.65625 -127.0625 C -100.164062 -118.738281 -98.53125 -112.347656 -96.75 -107.890625 C -94.96875 -103.429688 -92.59375 -99.570312 -89.625 -96.3125 C -87.539062 -94.226562 -85.234375 -92.59375 -82.703125 -91.40625 C -80.179688 -90.21875 -77.132812 -89.625 -73.5625 -89.625 C -65.539062 -89.625 -59.820312 -92.59375 -56.40625 -98.53125 C -52.988281 -104.476562 -51.28125 -111.460938 -51.28125 -119.484375 Z M -51.28125 -119.484375 "/></g></g></g><g fill="#38485c" fill-opacity="1"><g transform="translate(464.554225, 190.335613)"><g><path d="M 0 -131.53125 L 0 -81.140625 C 0 -62.710938 -4.382812 -48.445312 -13.15625 -38.34375 C -21.925781 -28.238281 -34.332031 -23.1875 -50.375 -23.1875 L -340.1875 -23.1875 L -340.1875 -98.09375 L -76.234375 -98.09375 C -69.398438 -98.09375 -65.09375 -99.800781 -63.3125 -103.21875 C -61.53125 -106.632812 -60.640625 -109.828125 -60.640625 -112.796875 L -60.640625 -131.53125 Z M 0 -131.53125 "/></g></g></g></svg>